<svg width="189" height="36" viewBox="0 0 189 36" fill="none" xmlns="http://www.w3.org/2000/svg">
<path d="M12.8905 27.444C10.2758 27.444 8.03117 26.889 6.15651 25.779C4.28184 24.6443 2.83884 23.078 1.82751 21.08C0.816175 19.0573 0.310508 16.7263 0.310508 14.087C0.310508 11.4477 0.816175 9.11667 1.82751 7.094C2.83884 5.07133 4.28184 3.49267 6.15651 2.358C8.03117 1.22333 10.2758 0.656 12.8905 0.656C15.9985 0.656 18.5392 1.433 20.5125 2.987C22.5105 4.51633 23.7562 6.67467 24.2495 9.462H19.0325C18.7118 8.056 18.0212 6.95833 16.9605 6.169C15.9245 5.355 14.5432 4.948 12.8165 4.948C10.4238 4.948 8.54917 5.762 7.19251 7.39C5.83584 9.018 5.15751 11.2503 5.15751 14.087C5.15751 16.9237 5.83584 19.156 7.19251 20.784C8.54917 22.3873 10.4238 23.189 12.8165 23.189C14.5432 23.189 15.9245 22.819 16.9605 22.079C18.0212 21.3143 18.7118 20.266 19.0325 18.934H24.2495C23.7562 21.598 22.5105 23.6823 20.5125 25.187C18.5392 26.6917 15.9985 27.444 12.8905 27.444ZM37.1368 27.444C35.3608 27.444 33.7574 27.037 32.3268 26.223C30.9208 25.409 29.7984 24.2867 28.9598 22.856C28.1458 21.4007 27.7388 19.7233 27.7388 17.824C27.7388 15.9247 28.1581 14.2597 28.9968 12.829C29.8354 11.3737 30.9578 10.239 32.3638 9.425C33.7944 8.611 35.3978 8.204 37.1738 8.204C38.9251 8.204 40.5038 8.611 41.9098 9.425C43.3404 10.239 44.4628 11.3737 45.2768 12.829C46.1154 14.2597 46.5348 15.9247 46.5348 17.824C46.5348 19.7233 46.1154 21.4007 45.2768 22.856C44.4628 24.2867 43.3404 25.409 41.9098 26.223C40.4791 27.037 38.8881 27.444 37.1368 27.444ZM37.1368 23.337C38.3701 23.337 39.4431 22.8807 40.3558 21.968C41.2684 21.0307 41.7248 19.6493 41.7248 17.824C41.7248 15.9987 41.2684 14.6297 40.3558 13.717C39.4431 12.7797 38.3824 12.311 37.1738 12.311C35.9158 12.311 34.8304 12.7797 33.9178 13.717C33.0298 14.6297 32.5858 15.9987 32.5858 17.824C32.5858 19.6493 33.0298 21.0307 33.9178 21.968C34.8304 22.8807 35.9034 23.337 37.1368 23.337ZM50.7693 27V8.648H54.9503L55.3573 11.127C55.9493 10.239 56.7263 9.536 57.6883 9.018C58.6749 8.47533 59.8096 8.204 61.0923 8.204C63.9289 8.204 65.9393 9.30167 67.1233 11.497C67.7893 10.4857 68.6773 9.684 69.7873 9.092C70.9219 8.5 72.1553 8.204 73.4873 8.204C75.8799 8.204 77.7176 8.91933 79.0003 10.35C80.2829 11.7807 80.9243 13.8773 80.9243 16.64V27H76.1883V17.084C76.1883 15.5053 75.8799 14.2967 75.2633 13.458C74.6713 12.6193 73.7463 12.2 72.4883 12.2C71.2056 12.2 70.1696 12.6687 69.3803 13.606C68.6156 14.5433 68.2333 15.8507 68.2333 17.528V27H63.4973V17.084C63.4973 15.5053 63.1889 14.2967 62.5723 13.458C61.9556 12.6193 61.0059 12.2 59.7233 12.2C58.4653 12.2 57.4416 12.6687 56.6523 13.606C55.8876 14.5433 55.5053 15.8507 55.5053 17.528V27H50.7693ZM85.4206 35.14V8.648H89.6386L90.1566 11.275C90.7486 10.461 91.5256 9.74567 92.4876 9.129C93.4743 8.51233 94.7446 8.204 96.2986 8.204C98.0253 8.204 99.567 8.62333 100.924 9.462C102.28 10.3007 103.353 11.4477 104.143 12.903C104.932 14.3583 105.327 16.011 105.327 17.861C105.327 19.711 104.932 21.3637 104.143 22.819C103.353 24.2497 102.28 25.3843 100.924 26.223C99.567 27.037 98.0253 27.444 96.2986 27.444C94.9173 27.444 93.7086 27.185 92.6726 26.667C91.6366 26.149 90.798 25.4213 90.1566 24.484V35.14H85.4206ZM95.2996 23.3C96.8043 23.3 98.05 22.7943 99.0366 21.783C100.023 20.7717 100.517 19.4643 100.517 17.861C100.517 16.2577 100.023 14.938 99.0366 13.902C98.05 12.866 96.8043 12.348 95.2996 12.348C93.7703 12.348 92.5123 12.866 91.5256 13.902C90.5636 14.9133 90.0826 16.2207 90.0826 17.824C90.0826 19.4273 90.5636 20.747 91.5256 21.783C92.5123 22.7943 93.7703 23.3 95.2996 23.3ZM115.884 27.444C114.306 27.444 113.011 27.1973 111.999 26.704C110.988 26.186 110.236 25.5077 109.742 24.669C109.249 23.8303 109.002 22.9053 109.002 21.894C109.002 20.192 109.668 18.8107 111 17.75C112.332 16.6893 114.33 16.159 116.994 16.159H121.656V15.715C121.656 14.457 121.299 13.532 120.583 12.94C119.868 12.348 118.98 12.052 117.919 12.052C116.957 12.052 116.119 12.2863 115.403 12.755C114.688 13.199 114.244 13.865 114.071 14.753H109.446C109.57 13.421 110.014 12.2617 110.778 11.275C111.568 10.2883 112.579 9.536 113.812 9.018C115.046 8.47533 116.427 8.204 117.956 8.204C120.571 8.204 122.631 8.85767 124.135 10.165C125.64 11.4723 126.392 13.3223 126.392 15.715V27H122.359L121.915 24.04C121.373 25.0267 120.608 25.8407 119.621 26.482C118.659 27.1233 117.414 27.444 115.884 27.444ZM116.957 23.744C118.314 23.744 119.362 23.3 120.102 22.412C120.867 21.524 121.348 20.4263 121.545 19.119H117.512C116.254 19.119 115.354 19.3533 114.811 19.822C114.269 20.266 113.997 20.821 113.997 21.487C113.997 22.2023 114.269 22.7573 114.811 23.152C115.354 23.5467 116.069 23.744 116.957 23.744ZM130.912 27V8.648H135.13L135.574 12.089C136.24 10.905 137.14 9.96767 138.275 9.277C139.434 8.56167 140.791 8.204 142.345 8.204V13.199H141.013C139.977 13.199 139.052 13.3593 138.238 13.68C137.424 14.0007 136.783 14.5557 136.314 15.345C135.87 16.1343 135.648 17.232 135.648 18.638V27H130.912ZM154.174 27.444C152.324 27.444 150.683 27.0493 149.253 26.26C147.822 25.4707 146.7 24.3607 145.886 22.93C145.072 21.4993 144.665 19.8467 144.665 17.972C144.665 16.0727 145.059 14.383 145.849 12.903C146.663 11.423 147.773 10.276 149.179 9.462C150.609 8.62333 152.287 8.204 154.211 8.204C156.011 8.204 157.602 8.59867 158.984 9.388C160.365 10.1773 161.438 11.2627 162.203 12.644C162.992 14.0007 163.387 15.5177 163.387 17.195C163.387 17.4663 163.374 17.75 163.35 18.046C163.35 18.342 163.337 18.6503 163.313 18.971H149.364C149.462 20.4017 149.956 21.524 150.844 22.338C151.756 23.152 152.854 23.559 154.137 23.559C155.099 23.559 155.9 23.3493 156.542 22.93C157.208 22.486 157.701 21.9187 158.022 21.228H162.832C162.486 22.3873 161.907 23.448 161.093 24.41C160.303 25.3473 159.317 26.0873 158.133 26.63C156.973 27.1727 155.654 27.444 154.174 27.444ZM154.211 12.052C153.051 12.052 152.028 12.385 151.14 13.051C150.252 13.6923 149.684 14.679 149.438 16.011H158.577C158.503 14.8023 158.059 13.8403 157.245 13.125C156.431 12.4097 155.419 12.052 154.211 12.052ZM166.223 27L174.326 13.902L166.112 1.1H171.551L177.36 10.128L182.688 1.1H188.016L179.913 14.124L188.201 27H182.762L176.879 17.861L171.551 27H166.223Z" fill="black"/>
</svg>
